<mxfile host="65bd71144e">
    <diagram name="Page-1" id="V6YXN4t0_ka44JOTMUzc">
        <mxGraphModel dx="606" dy="645" grid="1" gridSize="10" guides="1" tooltips="1" connect="1" arrows="1" fold="1" page="1" pageScale="1" pageWidth="850" pageHeight="1100" background="none" math="0" shadow="0">
            <root>
                <mxCell id="0"/>
                <mxCell id="1" parent="0"/>
                <mxCell id="a43oJSoC-Rf2Eh1Hx84k-14" style="edgeStyle=orthogonalEdgeStyle;rounded=0;orthogonalLoop=1;jettySize=auto;html=1;exitX=1;exitY=0.5;exitDx=0;exitDy=0;entryX=0;entryY=0.25;entryDx=0;entryDy=0;" parent="1" source="a43oJSoC-Rf2Eh1Hx84k-22" target="a43oJSoC-Rf2Eh1Hx84k-9" edge="1">
                    <mxGeometry relative="1" as="geometry">
                        <Array as="points">
                            <mxPoint x="420" y="248"/>
                            <mxPoint x="420" y="115"/>
                        </Array>
                    </mxGeometry>
                </mxCell>
                <mxCell id="a43oJSoC-Rf2Eh1Hx84k-15" value="pipewire::channel" style="edgeLabel;html=1;align=center;verticalAlign=middle;resizable=0;points=[];" parent="a43oJSoC-Rf2Eh1Hx84k-14" vertex="1" connectable="0">
                    <mxGeometry x="0.1768" y="-1" relative="1" as="geometry">
                        <mxPoint x="49" y="-47" as="offset"/>
                    </mxGeometry>
                </mxCell>
                <mxCell id="a43oJSoC-Rf2Eh1Hx84k-8" value="Main Thread" style="swimlane;whiteSpace=wrap;html=1;" parent="1" vertex="1">
                    <mxGeometry x="170" y="50" width="230" height="240" as="geometry"/>
                </mxCell>
                <mxCell id="a43oJSoC-Rf2Eh1Hx84k-23" style="edgeStyle=orthogonalEdgeStyle;rounded=0;orthogonalLoop=1;jettySize=auto;html=1;exitX=0.5;exitY=1;exitDx=0;exitDy=0;entryX=0;entryY=0.5;entryDx=0;entryDy=0;" parent="a43oJSoC-Rf2Eh1Hx84k-8" source="a43oJSoC-Rf2Eh1Hx84k-10" target="a43oJSoC-Rf2Eh1Hx84k-21" edge="1">
                    <mxGeometry relative="1" as="geometry">
                        <Array as="points">
                            <mxPoint x="40" y="90"/>
                            <mxPoint x="40" y="125"/>
                        </Array>
                    </mxGeometry>
                </mxCell>
                <mxCell id="a43oJSoC-Rf2Eh1Hx84k-10" value="Command Listener" style="rounded=0;whiteSpace=wrap;html=1;" parent="a43oJSoC-Rf2Eh1Hx84k-8" vertex="1">
                    <mxGeometry x="10" y="30" width="80" height="60" as="geometry"/>
                </mxCell>
                <mxCell id="a43oJSoC-Rf2Eh1Hx84k-24" style="edgeStyle=orthogonalEdgeStyle;rounded=0;orthogonalLoop=1;jettySize=auto;html=1;exitX=0.75;exitY=1;exitDx=0;exitDy=0;entryX=1;entryY=0.5;entryDx=0;entryDy=0;" parent="a43oJSoC-Rf2Eh1Hx84k-8" source="a43oJSoC-Rf2Eh1Hx84k-18" target="a43oJSoC-Rf2Eh1Hx84k-21" edge="1">
                    <mxGeometry relative="1" as="geometry"/>
                </mxCell>
                <mxCell id="a43oJSoC-Rf2Eh1Hx84k-18" value="Event Listener" style="rounded=0;whiteSpace=wrap;html=1;" parent="a43oJSoC-Rf2Eh1Hx84k-8" vertex="1">
                    <mxGeometry x="110" y="30" width="70" height="60" as="geometry"/>
                </mxCell>
                <mxCell id="a43oJSoC-Rf2Eh1Hx84k-25" style="edgeStyle=orthogonalEdgeStyle;rounded=0;orthogonalLoop=1;jettySize=auto;html=1;exitX=0.5;exitY=1;exitDx=0;exitDy=0;entryX=0.5;entryY=0;entryDx=0;entryDy=0;" parent="a43oJSoC-Rf2Eh1Hx84k-8" source="a43oJSoC-Rf2Eh1Hx84k-21" target="a43oJSoC-Rf2Eh1Hx84k-22" edge="1">
                    <mxGeometry relative="1" as="geometry"/>
                </mxCell>
                <mxCell id="a43oJSoC-Rf2Eh1Hx84k-21" value="Handle&lt;br&gt;commands" style="ellipse;whiteSpace=wrap;html=1;" parent="a43oJSoC-Rf2Eh1Hx84k-8" vertex="1">
                    <mxGeometry x="60" y="100" width="80" height="50" as="geometry"/>
                </mxCell>
                <mxCell id="a43oJSoC-Rf2Eh1Hx84k-22" value="Send responses" style="ellipse;whiteSpace=wrap;html=1;" parent="a43oJSoC-Rf2Eh1Hx84k-8" vertex="1">
                    <mxGeometry x="62.5" y="170" width="75" height="55" as="geometry"/>
                </mxCell>
                <mxCell id="a43oJSoC-Rf2Eh1Hx84k-16" style="edgeStyle=orthogonalEdgeStyle;rounded=0;orthogonalLoop=1;jettySize=auto;html=1;exitX=0;exitY=0.75;exitDx=0;exitDy=0;entryX=1;entryY=0.5;entryDx=0;entryDy=0;" parent="1" source="a43oJSoC-Rf2Eh1Hx84k-9" target="a43oJSoC-Rf2Eh1Hx84k-18" edge="1">
                    <mxGeometry relative="1" as="geometry">
                        <mxPoint x="460" y="190" as="targetPoint"/>
                        <Array as="points">
                            <mxPoint x="380" y="215"/>
                            <mxPoint x="380" y="110"/>
                        </Array>
                    </mxGeometry>
                </mxCell>
                <mxCell id="a43oJSoC-Rf2Eh1Hx84k-17" value="tokio::sync::mpsc" style="edgeLabel;html=1;align=center;verticalAlign=middle;resizable=0;points=[];" parent="a43oJSoC-Rf2Eh1Hx84k-16" vertex="1" connectable="0">
                    <mxGeometry x="0.1465" relative="1" as="geometry">
                        <mxPoint x="100" y="-2" as="offset"/>
                    </mxGeometry>
                </mxCell>
                <mxCell id="a43oJSoC-Rf2Eh1Hx84k-9" value="Pipewire Main Loop" style="swimlane;whiteSpace=wrap;html=1;" parent="1" vertex="1">
                    <mxGeometry x="530" y="65" width="200" height="200" as="geometry"/>
                </mxCell>
                <mxCell id="LwsptUBoSqDz6J9Z2OcH-2" style="edgeStyle=orthogonalEdgeStyle;rounded=0;orthogonalLoop=1;jettySize=auto;html=1;exitX=0;exitY=0.75;exitDx=0;exitDy=0;entryX=0;entryY=0.25;entryDx=0;entryDy=0;" parent="1" source="LwsptUBoSqDz6J9Z2OcH-1" target="a43oJSoC-Rf2Eh1Hx84k-8" edge="1">
                    <mxGeometry relative="1" as="geometry"/>
                </mxCell>
                <mxCell id="LwsptUBoSqDz6J9Z2OcH-1" value="Client&lt;br&gt;" style="swimlane;whiteSpace=wrap;html=1;" parent="1" vertex="1">
                    <mxGeometry x="360" y="330" width="200" height="200" as="geometry"/>
                </mxCell>
                <mxCell id="LwsptUBoSqDz6J9Z2OcH-3" style="edgeStyle=orthogonalEdgeStyle;rounded=0;orthogonalLoop=1;jettySize=auto;html=1;exitX=0.5;exitY=1;exitDx=0;exitDy=0;entryX=0;entryY=0.25;entryDx=0;entryDy=0;" parent="1" source="a43oJSoC-Rf2Eh1Hx84k-22" target="LwsptUBoSqDz6J9Z2OcH-1" edge="1">
                    <mxGeometry relative="1" as="geometry"/>
                </mxCell>
            </root>
        </mxGraphModel>
    </diagram>
</mxfile>